<svg width="30" height="30" viewBox="0 0 30 30" fill="none" xmlns="http://www.w3.org/2000/svg">
<rect x="0.5" y="0.5" width="29" height="29" rx="7.5" stroke="#1B2D51" stroke-opacity="0.4"/>
<path d="M20 18.4333C19.3667 18.4333 18.8 18.6833 18.3667 19.075L12.425 15.6166C12.4667 15.425 12.5 15.2333 12.5 15.0333C12.5 14.8333 12.4667 14.6416 12.425 14.45L18.3 11.025C18.75 11.4416 19.3417 11.7 20 11.7C21.3833 11.7 22.5 10.5833 22.5 9.19995C22.5 7.81662 21.3833 6.69995 20 6.69995C18.6167 6.69995 17.5 7.81662 17.5 9.19995C17.5 9.39995 17.5333 9.59162 17.575 9.78328L11.7 13.2083C11.25 12.7916 10.6583 12.5333 10 12.5333C8.61667 12.5333 7.5 13.65 7.5 15.0333C7.5 16.4166 8.61667 17.5333 10 17.5333C10.6583 17.5333 11.25 17.275 11.7 16.8583L17.6333 20.325C17.5917 20.5 17.5667 20.6833 17.5667 20.8666C17.5667 22.2083 18.6583 23.3 20 23.3C21.3417 23.3 22.4333 22.2083 22.4333 20.8666C22.4333 19.525 21.3417 18.4333 20 18.4333ZM20 8.36662C20.4583 8.36662 20.8333 8.74162 20.8333 9.19995C20.8333 9.65828 20.4583 10.0333 20 10.0333C19.5417 10.0333 19.1667 9.65828 19.1667 9.19995C19.1667 8.74162 19.5417 8.36662 20 8.36662ZM10 15.8666C9.54167 15.8666 9.16667 15.4916 9.16667 15.0333C9.16667 14.575 9.54167 14.2 10 14.2C10.4583 14.2 10.8333 14.575 10.8333 15.0333C10.8333 15.4916 10.4583 15.8666 10 15.8666ZM20 21.7166C19.5417 21.7166 19.1667 21.3416 19.1667 20.8833C19.1667 20.425 19.5417 20.05 20 20.05C20.4583 20.05 20.8333 20.425 20.8333 20.8833C20.8333 21.3416 20.4583 21.7166 20 21.7166Z" fill="#1B2D51"/>
</svg>
